<?xml version="1.0" encoding="UTF-8"?>
<svg id="wordmark" data-name="workdmark" xmlns="http://www.w3.org/2000/svg" viewBox="0 0 144.23 21.19">
  <path d="m144.23,20.84c-2.84.6-4.48-.55-5.36-3.25-.53-1.62-1.51-3.1-2.37-4.8-1.17,1.31-2.28,2.47-3.27,3.73-.27.34-.22.96-.24,1.45-.03.9,0,1.8,0,2.79h-3.37V0h3.36v12.7c.3-.25.42-.33.51-.44,1.97-2.13,3.92-4.26,5.91-6.37.27-.29.68-.61,1.05-.64,1.01-.09,2.04-.03,3.33-.03-1.5,1.63-2.82,3.03-4.08,4.49-.25.29-.48.9-.34,1.19,1.59,3.26,3.26,6.48,4.9,9.71v.24Z" />
  <path d="m35.02,20.79h-2.92c-.19-.93-.37-1.83-.58-2.87-.17.23-.29.37-.39.52-1.57,2.35-4.18,3.22-6.89,2.26-1.89-.66-2.93-2.03-3.08-3.97-.15-1.95.7-3.46,2.45-4.38,1.95-1.03,4.1-1.2,6.27-1.28.58-.02,1.51.46,1.69-.52.19-.99,0-1.98-.98-2.61-1.84-1.16-4.7-.49-5.86,1.34-.14.22-.54.42-.81.4-.71-.03-1.41-.19-2.11-.29.08-1.85,1.28-3.26,3.43-3.93,2.1-.66,4.26-.66,6.39-.14,2.22.55,3.23,1.78,3.35,4.15.1,2.08.05,4.18.06,6.27,0,1.64,0,3.29,0,5.03Zm-3.56-7.81c-1.52-.28-4.19.17-5.41.91-1.11.68-1.6,1.77-1.29,2.91.27.99,1.19,1.61,2.48,1.66,3.05.12,4.87-2.25,4.22-5.49Z" />
  <path d="m97.07,9.39c.27-2.2,1.68-3.3,3.5-3.9,2.21-.73,4.49-.7,6.73-.06,1.73.5,2.87,1.61,2.95,3.45.11,2.36.1,4.73.13,7.09.02,1.56,0,3.13,0,4.78h-2.92c-.18-.88-.37-1.78-.58-2.82-.16.2-.29.33-.37.48-1.6,2.88-5.1,3.09-7.33,2.12-1.69-.74-2.57-2.11-2.67-3.9-.1-1.79.64-3.23,2.23-4.15,2-1.15,4.22-1.32,6.47-1.41.59-.02,1.59-.21,1.67-.51.26-.96.07-1.97-.91-2.6-1.82-1.18-4.75-.5-5.87,1.31-.14.23-.53.44-.8.43-.71-.03-1.41-.18-2.23-.3Zm9.76,3.43c-1.92.1-3.8.12-5.47,1.11-1.08.64-1.52,1.71-1.25,2.82.24,1,1.17,1.65,2.44,1.71,3.05.15,4.82-2.09,4.28-5.65Z" />
  <path d="m83.56,8.52c-1.01.22-1.97.43-2.99.65-.93-1.85-2.54-1.94-4.29-1.58-.81.16-1.56.5-1.63,1.47-.07.99.64,1.41,1.45,1.61,1.43.35,2.88.63,4.33.93,2.52.52,3.76,1.8,3.94,4.08.17,2.16-.97,3.92-3.21,4.73-2.66.97-5.33.93-7.92-.28-1.4-.65-1.96-1.36-2.4-2.88.94-.18,1.86-.4,2.8-.51.22-.03.53.24.71.45,1.17,1.39,4.35,1.83,5.8.7.38-.3.75-.95.68-1.37-.08-.48-.57-1.1-1.03-1.26-1.08-.38-2.24-.53-3.37-.78-.54-.12-1.1-.21-1.63-.38-2.32-.72-3.4-2.05-3.41-4.15,0-2.18,1.29-3.92,3.47-4.57,1.93-.57,3.88-.52,5.78.13,1.43.48,2.46,1.42,2.95,3.02Z" />
  <path d="m48.58,15.13c.97.11,1.87.2,2.9.32-.37,2.3-1.4,4.12-3.6,5.03-2.47,1.01-4.89.81-6.95-.98-3.38-2.94-3.37-9.89.01-12.84,2.07-1.8,4.5-2.14,7.05-1.19,2.14.8,3.19,2.49,3.51,4.81-.99.14-1.91.28-2.9.43-.07-.23-.12-.41-.18-.58-.48-1.51-1.24-2.2-2.54-2.29-1.37-.1-2.52.59-3.1,1.96-.82,1.92-.83,3.92-.26,5.91.43,1.51,1.46,2.31,2.79,2.35,1.4.04,2.3-.61,2.95-2.14.09-.22.18-.44.32-.78Z" />
  <path d="m126.81,15.45c-.51,3.25-2.41,5.13-5.54,5.56-2.86.39-5.57-1.12-6.7-3.9-1.2-2.96-1.17-5.95.4-8.78,1.68-3.03,5.55-4.2,8.71-2.7,1.93.91,2.9,2.49,3.16,4.67-.97.14-1.9.27-2.83.41-.09-.15-.16-.25-.19-.35-.52-1.76-1.29-2.48-2.72-2.52-1.43-.05-2.74.72-3.06,2.31-.34,1.7-.42,3.51-.22,5.22.21,1.74,1.34,2.6,2.72,2.68,1.52.09,2.44-.59,3.16-2.36.06-.15.12-.29.22-.54.44.04.91.09,1.37.14.47.05.95.1,1.51.16Z" />
  <path d="m5.28,7.84c0,2.95-.02,5.66.01,8.38.01,1.11.65,1.73,1.81,1.79.47.03.95.06,1.5.09v2.67c-1.69.52-3.34.4-4.93-.41-1.22-.62-1.74-1.71-1.77-3.01-.04-2.52-.04-5.05-.05-7.57,0-1.83,0-1.83-1.86-2v-2.51c.63-.04,1.29-.08,2.03-.12.13-1.31.25-2.59.38-3.93.95-.1,1.84-.19,2.83-.29v4.22h3.09v2.68h-3.05Z" />
  <path d="m61.4,5.18v2.68h-3.06c0,2.97-.04,5.8.02,8.63.02.88.64,1.42,1.56,1.51.55.05,1.1.08,1.72.13v2.65c-1.42.49-2.83.4-4.21-.06-1.62-.54-2.47-1.7-2.5-3.38-.04-2.48-.04-4.97-.05-7.45q0-1.89-1.9-2.11c-.02-.4-.05-.82-.06-1.23,0-.39,0-.78,0-1.24.75-.05,1.41-.1,2.13-.15.12-1.29.24-2.54.37-3.91.89-.1,1.78-.21,2.81-.33v4.27h3.15Z" />
  <path d="m85.65,7.78v-2.51c.69-.03,1.31-.07,2.05-.1.13-1.29.25-2.56.39-3.93.92-.1,1.82-.2,2.84-.31v4.29h3.11v2.6h-3.09c0,1.51,0,2.87,0,4.23,0,1.18,0,2.37,0,3.55.02,1.89.49,2.37,2.39,2.46.28.01.55,0,.93,0v2.62c-3.37,1.53-6.64-.43-6.71-4.1-.05-2.44-.07-4.89,0-7.33.03-1.07-.26-1.55-1.39-1.38-.14.02-.3-.04-.52-.08Z" />
  <path d="m11.61,5.21c.8,0,1.51,0,2.22,0,.23,0,.47.02.8.04v3.22c.74-1.02,1.2-1.95,1.93-2.57.74-.62,1.75-.91,2.84-1.45v3.98c-2.89.45-4.15,1.75-4.31,4.64-.12,2.12-.06,4.25-.07,6.38,0,.42,0,.85,0,1.32h-3.42V5.21Z" />
</svg>
